<?xml version="1.0" encoding="utf-8"?>
<!-- Generator: Adobe Illustrator 16.0.0, SVG Export Plug-In . SVG Version: 6.00 Build 0)  -->
<!DOCTYPE svg PUBLIC "-//W3C//DTD SVG 1.1//EN" "http://www.w3.org/Graphics/SVG/1.1/DTD/svg11.dtd">
<svg version="1.1" id="Layer_1" xmlns="http://www.w3.org/2000/svg" xmlns:xlink="http://www.w3.org/1999/xlink" x="0px" y="0px"
	 width="595.281px" height="841.89px" viewBox="0 0 595.281 841.89" enable-background="new 0 0 595.281 841.89"
	 xml:space="preserve">
<linearGradient id="SVGID_1_" gradientUnits="userSpaceOnUse" x1="192.3364" y1="736.1714" x2="494.7368" y2="736.1714" gradientTransform="matrix(0.8818 0 0 -0.8818 0.0566 1008.3535)">
	<stop  offset="0" style="stop-color:#46344E"/>
	<stop  offset="0.0897" style="stop-color:#5C2E46"/>
	<stop  offset="0.3068" style="stop-color:#8C2034"/>
	<stop  offset="0.5132" style="stop-color:#B21426"/>
	<stop  offset="0.7034" style="stop-color:#CD0D1B"/>
	<stop  offset="0.8715" style="stop-color:#DD0815"/>
	<stop  offset="1" style="stop-color:#E30613"/>
</linearGradient>
<path fill="url(#SVGID_1_)" d="M334.277,320.732l-8.904,15.343h-71.159l-22.309,38.533h82.269c0.176,0,20.721,0.793,37.299-8.642
	c13.844-7.848,21.162-20.104,23.984-24.689c0.439-0.705,18.428-31.567,34.213-59.078h-124.33l-17.988,0.088l8.994-15.431h159.953
	c-2.029,3.527-47.264,81.916-47.615,82.357c-3.352,5.555-12.258,20.369-29.539,30.156c-17.283,9.788-37.035,10.669-43.473,10.669
	c-0.969,0-92.673-0.088-92.673-0.088l-35.623,61.636h-17.724l75.567-130.943h89.058V320.732z"/>
</svg>
