<?xml version="1.0" encoding="UTF-8"?>
<svg enable-background="new -1343 1403.65002 149 28" version="1.1" viewBox="-1343 1403.65002 149 28" xml:space="preserve" xmlns="http://www.w3.org/2000/svg">
<style type="text/css">
	.st0{fill:url(#a);}
	.st1{fill:#1D1C1B;}
</style>
<title>logo logo</title>
<desc>Created with Sketch.</desc>
	<linearGradient id="a" x1="-1345.7" x2="-1303.8" y1="1426.5" y2="1402.3" gradientUnits="userSpaceOnUse">
		<stop stop-color="#46344E" offset=".00323"/>
		<stop stop-color="#5C2E46" offset=".09259"/>
		<stop stop-color="#8C2034" offset=".30907"/>
		<stop stop-color="#B21426" offset=".5148"/>
		<stop stop-color="#CD0D1B" offset=".70436"/>
		<stop stop-color="#DD0815" offset=".87195"/>
		<stop stop-color="#E30613" offset="1"/>
	</linearGradient>
	<path class="st0" d="m-1303 1403.7c-0.30579 0.5321-0.79224 1.3751-1.3236 2.2998-2.1119 3.6753-5.4517 9.4507-5.6935 9.8557-0.026 0.04395-0.06335 0.10266-0.10779 0.177-0.50061 0.83447-1.8302 3.051-4.4258 4.5206-2.5857 1.4645-5.5414 1.5948-6.5093 1.5948-0.14172 0-0.24048-0.00293-0.28955-0.00488l-13.586-0.00415-5.3313 9.2266-2.6509 0.00403 11.313-19.608h13.341l-1.3373 2.3019c-0.07056 0-10.652 0.00256-10.652 0.00256l-3.3342 5.7692 12.288 0.00403c0.0553 0.00281 3.1276 0.11682 5.613-1.2909 2.0673-1.1706 3.1699-3.009 3.5851-3.7009 0.0614-0.10229 0.18201-0.29065 0.21533-0.35254 0.27332-0.50647 2.5382-4.3792 4.9042-8.4948h-18.616l-2.6874 0.00879 1.2943-2.2352 0.04529-0.078h21.288l2.6574 0.00464z"/>
	<path class="st1" d="m-1287.3 1415.6c0 0.37732-0.06458 0.74731-0.19202 1.0995-0.12781 0.35254-0.31104 0.66956-0.54456 0.9425-0.23474 0.27441-0.51941 0.49646-0.84631 0.65979-0.3291 0.16455-0.69836 0.24805-1.0974 0.24805h-3.0715v3.4408h-0.854v-6.4838h0.854v2.241h0.27173l2.774-6.1e-4c0.28186 0 0.5387-0.05884 0.76331-0.17493 0.22571-0.11694 0.42004-0.27661 0.57751-0.47461 0.15869-0.19897 0.28284-0.43079 0.36877-0.68823 0.08606-0.25854 0.12964-0.53076 0.12964-0.80945 0-0.28577-0.05176-0.56067-0.15344-0.81714-0.10229-0.25745-0.24292-0.48718-0.41809-0.68274-0.17456-0.19482-0.38049-0.3512-0.61182-0.46509-0.22864-0.1123-0.47522-0.16931-0.73279-0.16931h-3.8961l0.45728-0.78979h3.4645c0.3988 0 0.77222 0.08557 1.1101 0.25439 0.33533 0.1676 0.62854 0.39355 0.87146 0.67188 0.24158 0.27661 0.43335 0.59314 0.56982 0.9408 0.13671 0.34789 0.20593 0.70348 0.20593 1.057zm13.808 6.3906h0.85413v-9.3151h-0.85413v9.3151zm50.531-8.0149c-0.02136 0-3.0184 6.1e-4 -3.6248 7.3e-4l-0.84741 7.3e-4v2.774h3.7546l-0.70483 1.217h-3.0498v4.0043h-1.4658v-9.2911h6.6716l-0.73365 1.2943zm-14.863 7.2252h5.4913l-0.4574 0.78979h-5.8879v-9.3152h6.2297l-0.4574 0.79004h-4.9183v3.3827h4.708l-0.44263 0.7644h-4.2654v3.5883zm-11.631-8.5254h7.7777l-0.45728 0.79004h-3.233v8.5252h-0.854v-8.5252h-3.6625l0.42908-0.79004zm-7.5117 5.5728l1.8772-4.42 1.8417 4.42h-3.7189zm1.5298-5.5728l-3.9623 9.3152h0.92285l1.2711-3.0045h4.2205l1.271 3.0045h0.9093l-3.9356-9.3152h-0.6969zm-6.1708 0h0.90979l-3.9359 9.3152h-0.7356l-0.02563-0.06055-3.9233-9.2546h0.91003l0.02563 0.06128 3.3748 8.0741 3.4003-8.1354zm57.582 0.00586l-3.4676 5.9672v3.324h-1.4657v-3.35l-3.4415-5.9412h1.6095l2.5647 4.6587 2.5911-4.6587h1.6096zm-13.793 7.9955h4.9857l-0.74951 1.2956h-5.7019v-9.2911h1.4657v7.9955zm-65.205-2.9298v-4.2815h3.0074c0.26501 0 0.5155 0.05896 0.74426 0.17517 0.23206 0.11829 0.43835 0.2771 0.61304 0.47217 0.17529 0.19556 0.31592 0.42517 0.41821 0.68274 0.10193 0.25684 0.15344 0.52759 0.15344 0.8042 0 0.27026-0.0437 0.53821-0.12964 0.79663-0.08569 0.25708-0.21167 0.48828-0.37439 0.68762-0.16174 0.19812-0.35913 0.3606-0.5863 0.48242-0.22351 0.11975-0.47546 0.18054-0.74866 0.18054h-3.0974zm5.1794-0.27661c0.19421-0.25549 0.34619-0.54834 0.45154-0.87012 0.10571-0.32031 0.1593-0.65698 0.1593-1.0005 0-0.35278-0.06934-0.70837-0.20581-1.0571-0.13611-0.34692-0.32788-0.66345-0.5697-0.94043-0.24316-0.27856-0.53625-0.50464-0.8717-0.67212-0.33777-0.16882-0.7113-0.25452-1.1101-0.25452h-3.8871v9.3149h0.85413v-3.4409h2.7988l2.2082 3.4409h0.99414l-2.2913-3.5729c0.27234-0.06042 0.52795-0.16309 0.76172-0.30615 0.27477-0.16833 0.51292-0.38427 0.70775-0.6411z"/>
</svg>
