<?xml version="1.0" encoding="UTF-8"?>
<svg enable-background="new 0 0 675.1 349.5" version="1.1" viewBox="0 0 675.1 349.5" xml:space="preserve" xmlns="http://www.w3.org/2000/svg">
<style type="text/css">
	.st0{fill:url(#a);}
	.st1{fill:#1D1C1B;}
</style>
<linearGradient id="a" x1="192.37" x2="494.75" y1="104.82" y2="104.82" gradientUnits="userSpaceOnUse">
	<stop stop-color="#46344E" offset="0"/>
	<stop stop-color="#5C2E46" offset=".089652"/>
	<stop stop-color="#8C2034" offset=".3068"/>
	<stop stop-color="#B21426" offset=".5132"/>
	<stop stop-color="#CD0D1B" offset=".7034"/>
	<stop stop-color="#DD0815" offset=".8715"/>
	<stop stop-color="#E30613" offset="1"/>
</linearGradient>
<path class="st0" d="m379.1 61.1l-10.1 17.4h-80.7l-25.3 43.7h93.3c0.2 0 23.5 0.9 42.3-9.8 15.7-8.9 24-22.8 27.2-28 0.5-0.8 20.9-35.8 38.8-67h-141l-20.4 0.1 10.2-17.5h181.4c-2.3 4-53.6 92.9-54 93.4-3.8 6.3-13.9 23.1-33.5 34.2s-42 12.1-49.3 12.1c-1.1 0-105.1-0.1-105.1-0.1l-40.4 69.9h-20.1l85.7-148.5h101z"/>
			<path class="st1" d="m127.2 349.5h-7.5l-16.6-25.8h-21v25.8h-6.4v-69.9h29.2c3 0 5.8 0.6 8.3 1.9s4.7 3 6.5 5c1.8 2.1 3.3 4.5 4.3 7.1s1.5 5.3 1.5 7.9-0.4 5.1-1.2 7.5-1.9 4.6-3.4 6.5-3.2 3.5-5.3 4.8c-1.8 1.1-3.7 1.8-5.7 2.3l17.3 26.9zm-45-31.9h23.2c2 0 3.9-0.5 5.6-1.4s3.2-2.1 4.4-3.6 2.2-3.2 2.8-5.2c0.6-1.9 1-3.9 1-6s-0.4-4.1-1.2-6-1.8-3.7-3.1-5.1c-1.3-1.5-2.9-2.7-4.6-3.5-1.7-0.9-3.6-1.3-5.6-1.3h-22.5v32.1z"/>
	<polygon class="st1" points="560.4 279.6 560.4 349.5 603.3 349.5 608.9 339.7 571.4 339.7 571.4 279.6"/>
	<polygon class="st1" points="663 279.6 643.5 314.7 624.2 279.6 612.1 279.6 638 324.3 638 349.5 649 349.5 649 324.5 675.1 279.6 675.1 279.6"/>
		<path class="st1" d="m220.1 349.5h-5.5l-0.2-0.5-29.4-69.4h6.8l0.2 0.5 25.3 60.6 25.5-61h6.8l-29.5 69.8z"/>
		<path class="st1" d="m323.8 349.5h-6.8l-9.5-22.5h-31.7l-9.5 22.5h-6.9l29.7-69.9h5.2l29.5 69.9zm-46.2-28.1h27.9l-13.8-33.1-14.1 33.1z"/>
		<path class="st1" d="m364.6 349.5h-6.4v-63.9h-27.5l3.2-5.9h58.3l-3.4 5.9h-24.2v63.9z"/>
		<path class="st1" d="m458.9 349.5h-44.2v-69.9h46.7l-3.4 5.9h-36.9v25.4h35.3l-3.3 5.7h-32v26.9h41.2l-3.4 6z"/>
	<path class="st1" d="m532.7 289.4l5.5-9.7h-50.2v69.9h11v-30.1h22.9l5.3-9.2h-28.2v-20.9h6.4 27.3z"/>
		<path class="st1" d="m160.1 349.5h-6.4v-69.9h6.4v69.9z"/>
	<path class="st1" d="m48.5 293.6c-1-2.6-2.5-5-4.3-7.1s-4-3.8-6.5-5c-2.5-1.3-5.3-1.9-8.3-1.9h-26l-3.4 5.9h29.2c1.9 0 3.8 0.4 5.5 1.3s3.3 2 4.6 3.5 2.4 3.2 3.1 5.1c0.8 1.9 1.2 4 1.2 6.1s-0.3 4.1-1 6.1c-0.6 1.9-1.6 3.7-2.8 5.2s-2.6 2.7-4.3 3.6-3.6 1.3-5.7 1.3h-20.8-2v-16.8h-6.5v48.6h6.5v-25.8h23c3 0 5.8-0.6 8.2-1.9 2.5-1.2 4.6-2.9 6.3-4.9 1.8-2 3.1-4.4 4.1-7.1 1-2.6 1.4-5.4 1.4-8.2 0.1-2.7-0.4-5.4-1.5-8z"/>
</svg>
